<svg id="Calque_1" data-name="Calque 1" xmlns="http://www.w3.org/2000/svg" viewBox="0 0 27.09 39.99"><defs><style>.cls-1{fill:#bdac92;}.cls-2{fill:#fad301;}.cls-3{fill:#020202;}.cls-4{fill:#e52c3b;}.cls-5{fill:#fbfbfb;}</style></defs><path class="cls-1" d="M988.52,562.49c0-.31.19-.75-.34-.85s-.48.41-.66.52c-.75.48-1,1.56-2.28,1.45-1.8-.15-3.63,0-5.45,0l-1.26-.09c-.26,0-.65,0-.67-.29,0-.88-.65-.67-1.15-.69s-1.48.09-1.54-.1c-.49-1.43-1.64-.67-2.48-.85-.27-.07-.7.1-.7-.37,0-.77-.55-.57-1-.58h-5.82c-.41,0-.87-.1-1,.53s-.59.44-.94.39c-.88-.12-1.13.22-1.13,1.09,0,6.48,0,13,0,19.45l1,0-1,0c0,4.67,0,9.35,0,14,0,.68,0,1.31,1,1,.79.21,1.09,0,1.08-.91,0-4.7,0-9.4,0-14.1-.1-.74.2-1,1-1,1.94,0,3.87,0,5.81,0,.29.05.8-.13.84.17.15,1.23,1.06.66,1.66.79.43.09,1.14-.24,1.24.25.2,1,.87.64,1.42.72s1.37-.27,1.5.19c.4,1.41,1.36.68,2.12.74,2.09.19,4.19,0,6.28.08a.46.46,0,0,0,.55-.43,2.37,2.37,0,0,1,1.31-1.43c.68-.32.6-.68.6-1.14,0-3.37,0-6.75,0-10.12C988.53,568.15,988.54,565.32,988.52,562.49Z" transform="translate(-961.46 -557.26)"/><path class="cls-2" d="M979.08,580.61c-.76-.08-1.74.64-2.13-.77-.12-.43-1-.12-1.51-.18s-1.13.23-1.31-.68c-.1-.51-.74-.18-1.12-.29-.64-.19-1.67.55-1.88-.8,0-.28-.56-.09-.84-.22V557.34c.3,0,.8-.2.83.12.14,1.15,1,.69,1.58.78s1.4-.36,1.61.77c.07.39.77.11,1.17.19.62.13,1.39-.37,1.75.76.17.56,1.22.06,1.84.29Q979.07,570.43,979.08,580.61Z" transform="translate(-961.46 -557.26)"/><path class="cls-3" d="M970.29,557.34v20.33c-2,0-3.92.09-5.87.07-.73,0-1.1.17-1,1l-1.06.07-.89-.06c0-6.51,0-13,0-19.53,0-.75.2-1.07,1-1,.51.08,1,.09,1-.68,0-.3.33-.28.56-.27Z" transform="translate(-961.46 -557.26)"/><path class="cls-4" d="M979.08,580.61q0-10.18,0-20.36a32,32,0,0,1,5.45,0c1.28.08,1.62-.92,2.28-1.54.21-.2.3-.47.65-.44s.35.44.35.72q0,3.9,0,7.8c0,3.65,0,7.29,0,10.94,0,.44.2.92-.6,1.12A2.52,2.52,0,0,0,986,580c-.25.7-.61.67-1.1.66C983,580.65,981,580.82,979.08,580.61Z" transform="translate(-961.46 -557.26)"/><path class="cls-5" d="M962.39,578.76l1.06-.07c0,4.76,0,9.52,0,14.27,0,.89-.4,1-1.07.8Z" transform="translate(-961.46 -557.26)"/></svg>