<svg id="Calque_1" data-name="Calque 1" xmlns="http://www.w3.org/2000/svg" viewBox="0 0 26.94 39.55"><defs><style>.cls-1{fill:#bdac92;}.cls-2{fill:#d01a30;}.cls-3{fill:#232f5e;}.cls-4{fill:#fbfbfb;}.cls-5{fill:#c2cac7;}</style></defs><path class="cls-1" d="M951.7,562.45c0-.31.19-.75-.34-.85s-.48.41-.66.52c-.75.48-1,1.56-2.28,1.45-1.8-.15-3.63,0-5.45,0l-1.26-.09c-.26,0-.65,0-.67-.29,0-.88-.65-.67-1.15-.69s-1.48.09-1.54-.1c-.49-1.43-1.64-.67-2.48-.86-.27-.06-.7.11-.7-.36,0-.77-.55-.57-1-.58h-5.82c-.41,0-.87-.1-1,.53s-.59.44-.94.39c-.88-.12-1.13.22-1.12,1.09,0,6.48,0,13,0,19.45l.95,0-.95,0c0,4.67,0,9.34,0,14,0,.68,0,1.31,1,1,.79.21,1.09,0,1.08-.91,0-4.7,0-9.4,0-14.1-.1-.75.2-1,1-1,1.94,0,3.88,0,5.81,0,.29,0,.8-.14.84.17.15,1.23,1.06.66,1.66.79.43.09,1.14-.24,1.24.25.2,1,.87.64,1.42.72s1.37-.27,1.5.19c.4,1.41,1.36.68,2.12.74,2.09.19,4.19,0,6.28.08a.46.46,0,0,0,.55-.43,2.33,2.33,0,0,1,1.32-1.43c.67-.32.59-.68.59-1.14,0-3.37,0-6.75,0-10.12C951.71,568.11,951.72,565.28,951.7,562.45Z" transform="translate(-924.79 -557.66)"/><path class="cls-2" d="M939.48,580.23c-.81-.05-1.86.57-2.19-.83,0-.09-.5-.08-.77-.11,0-2.61,0-5.21,0-7.81,0-.75-.16-1.06-.95-1-.32,0-.93.25-1-.3,0-.76-.48-.65-.93-.65-2,0-4,0-5.94,0-.79,0-1.08.22-.88,1l0,0-2,0,0-3c.77-.18,2.06.7,2-1,2.25,0,4.49,0,6.73.05.34,0,.88-.24,1,.36.13,1.09.94.54,1.42.57.79.07.5-.63.5-1,0-2.55,0-5.11,0-7.66.47,0,.85-.17,1.09.58s1.21.15,1.82.37a.29.29,0,0,0,.07.2v7.52c0,.33-.19.67.12,1l.48,0,.29.09.11.75c.12.32.36.2.57.16h.53l.08,0,.08,0h6.83c.3,0,.67.2.59-.36l.07-.53v0c.31-.15.91.15.93-.42,0-.77.55-.57,1-.61l0,2.9c-.78-.16-1,.22-.93.94l0,0c-.37.13-1-.2-1,.61,0,.5-.37.41-.65.41h-7.43c-.28,0-.68.12-.7-.36s-.15-.68-.61-.6-.35.54-.35.85C939.47,575,939.48,577.6,939.48,580.23Z" transform="translate(-924.79 -557.66)"/><path class="cls-3" d="M940.5,560.73h8.65c0,.31.07.62.11.93-.62,0-1.24,0-1,.92-.34.17-1-.2-1,.33,0,.73-.58.62-.92.86l-.11.92a6.9,6.9,0,0,1-1-.05c-.84-.13-1,.29-.84,1-.73.24-2-.7-2.07,1-.72-.11-1.07.13-.9.9l-.3.12c-.45,0-.68-.15-.67-.67C940.48,564.86,940.48,562.79,940.5,560.73Z" transform="translate(-924.79 -557.66)"/><path class="cls-3" d="M924.82,566.59v-4.93a5.47,5.47,0,0,1,.91,0c.84.18,1.2-.14,1.14-1h2.81c-.06.66,0,1.19.91,1a2,2,0,0,0,2.1,1.86V564s-.06.06-.06.08a1.39,1.39,0,0,0,.06.19c0,.8.65.27,1,.44.08.73-.21,1-1,1-1.7-.07-3.41,0-5.11,0-.47,0-.89,0-.74.66C926.22,566.79,925.49,566.5,924.82,566.59Z" transform="translate(-924.79 -557.66)"/><path class="cls-3" d="M924.82,576.38c0-1.64,0-3.29,0-4.94a5.39,5.39,0,0,1,.9,0c.83.19,1.18-.15,1.16-1l0,0c1.93,0,3.87,0,5.8,0,.76,0,1.06.21,1,1-.31.17-.93-.34-1,.45-.09.15-.13.39-.27.46a2.62,2.62,0,0,0-1.63,2.06c-.8-.15-1.26.08-1.1,1a13.7,13.7,0,0,0-2.79.06c-.33.23,0,.63-.25.9Z" transform="translate(-924.79 -557.66)"/><path class="cls-3" d="M951.12,571.48c0,1.62,0,3.25,0,4.87-.76-.14-1.07.17-.93.94l0,0c-.56,0-1.19,0-1,.89a.22.22,0,0,0-.19.08l-2.8.21c.21-.81,0-1.26-.94-1.16.21-.82-.18-1-.93-.93.11-.73-.07-1.17-.93-.93-.17-.31.28-.89-.42-1a.73.73,0,0,1-.64-.64c.47-.64,1.15-.19,1.72-.32,1.85-.43,3.94.92,5.66-.94a2.17,2.17,0,0,0,.47-1.09l0,0Z" transform="translate(-924.79 -557.66)"/><path class="cls-4" d="M929.7,578.34c-2.88,0-2.88,0-2.88,2.9,0,4,0,8.06,0,12.09,0,.89-.21,1.25-1.11.95,0-4.61,0-9.23,0-13.84,0-.62,0-1.21-.86-1.12,0-.31,0-.63,0-1h1.23l.7-.17,0-.8,2.82-.13Z" transform="translate(-924.79 -557.66)"/><path class="cls-3" d="M929.7,578.34c0-.36,0-.71,0-1.07l0,0c.91.26,1-.23.93-1l.94,0c.39-.22.1-.62.24-.91.75.15,1-.17.88-.89h.07v-.08c.71.14,1-.1.87-.85l.08,0,0-.09c.69.15,1.07,0,.9-.83.83-.14,1,.22,1,1-.06,1.89,0,3.79,0,5.68-.26,0-.73,0-.75,0-.37-1.43-1.51-.79-2.34-.87S930.62,578.35,929.7,578.34Z" transform="translate(-924.79 -557.66)"/><path class="cls-4" d="M950.21,571.44a2.17,2.17,0,0,1-.47,1.09c-1.72,1.86-3.81.51-5.66.94-.57.13-1.25-.32-1.72.32s-.62.7-.84-.07a.61.61,0,0,0-.73-.41c-.3,0-.35.2-.31.48s-.21.7.38.73.36.54.45.86c-.68-.09-.92.16-.89.89.05,1.34,0,2.68,0,4l-.9-.06c0-2.63,0-5.26,0-7.89,0-.31-.18-.75.35-.85s.59.17.61.6.42.36.7.36h7.43c.28,0,.68.09.65-.41C949.18,571.24,949.84,571.57,950.21,571.44Z" transform="translate(-924.79 -557.66)"/><path class="cls-3" d="M940.38,580.29c0-1.34.09-2.68,0-4,0-.73.21-1,.89-.89l0,.06h0c-.13.69.06,1.09.86.91a2.85,2.85,0,0,0,2.12,2.1c-.24.86.32.93.93.95l0,0c0,.52-.09,1.11.77.89a.24.24,0,0,0,.16,0l0,.91c-1.62,0-3.25,0-4.87,0C940.64,581.29,940.32,581,940.38,580.29Z" transform="translate(-924.79 -557.66)"/><path class="cls-3" d="M929.7,557.78c1.12,0,2.23,0,3.34,0,.65,0,1.52-.35,1.68.81,0,.13.54.19.83.28,0,1.31-.06,2.61,0,3.91,0,.8-.28,1-1,1,.28-1.17-.94-1.36-1.4-2s-1.17-.89-1.42-1.51-.55-.4-.9-.41c-.17-.27,0-.65-.24-.89s-.57-.08-.86-.09a.12.12,0,0,0-.06-.19Z" transform="translate(-924.79 -557.66)"/><path class="cls-4" d="M940.5,560.73c0,2.06,0,4.13-.07,6.2,0,.52.22.66.67.67.3.37,0,1.24,1,1.07.65-.11.3-.79.66-1.07l1,0h.17l.51-.15h0l-.07.08,0,.09c-.09.68.16.93.89.9,1.34,0,2.68,0,4,.06,0,.18,0,.35-.07.53l-.59.36h-6.83c0-.11-.1-.11-.16,0h-.53c-.15-.19-.36-.17-.57-.16,0-.25-.08-.5-.11-.75a.19.19,0,0,0-.29-.09l-.48,0c0-.33.14-.67-.12-1V560l.19-.2C940.53,559.61,940.4,560.27,940.5,560.73Z" transform="translate(-924.79 -557.66)"/><path class="cls-4" d="M934.56,563.76c.71,0,1-.18,1-1-.06-1.3,0-2.6,0-3.91l1,0c0,2.55,0,5.11,0,7.66,0,.39.29,1.09-.5,1-.48,0-1.29.52-1.42-.57-.07-.6-.61-.35-1-.36-2.24,0-4.48,0-6.73-.05a2.76,2.76,0,0,0-.08-.27c-.15-.67.27-.66.74-.66,1.7,0,3.41,0,5.11,0,.76,0,1.05-.23,1-1v0h.93c.13.31-.25.81.35.92a.76.76,0,0,0,.52-.08.49.49,0,0,0,.1-.62c-.23-.47-.64-.22-1-.19l0-1Z" transform="translate(-924.79 -557.66)"/><path class="cls-4" d="M935.54,579.3c0-1.89,0-3.79,0-5.68,0-.8-.17-1.16-1-1l0,0c.09-.72,0-1.32-1-1.18h0c.09-.74-.21-1-1-1-1.93.06-3.87,0-5.8,0-.2-.77.09-1,.88-1,2,.06,4,0,5.94,0,.45,0,.9-.11.93.65,0,.55.64.33,1,.3.79-.08,1,.23.95,1,0,2.6,0,5.2,0,7.81Z" transform="translate(-924.79 -557.66)"/><path class="cls-3" d="M949.25,568.62c-1.34,0-2.68-.1-4-.06-.73,0-1-.22-.89-.9l1.16-.1h.5c.12.11.17.06.19-.08a1.48,1.48,0,0,0,0-.93,1.32,1.32,0,0,0,.92,0c.33-.23.09-.62.25-.9,1,.21.94-1.21,1.81-1.24-.29-.92,1-.42,1-1.06-.06-.81.52-.56.93-.62,0,1.3,0,2.6,0,3.9-.69-.1-1.12.06-.92.88-.84,0-1.27.27-1,1.18Z" transform="translate(-924.79 -557.66)"/><path class="cls-5" d="M924.87,579.32c.89-.09.87.5.86,1.12,0,4.61,0,9.23,0,13.84-.52.09-.94.09-.94-.63Q924.85,586.48,924.87,579.32Z" transform="translate(-924.79 -557.66)"/><path class="cls-4" d="M951.11,562.69c-.41.06-1-.19-.93.62,0,.64-1.26.14-1,1.06-.87,0-.78,1.45-1.81,1.24a1.55,1.55,0,0,1,.71-1.54c.59-.4.76-.91.2-1.49-.29-.94.33-.93,1-.92h0c0,.18,0,.37,0,.56s-.09.63.4.62.61-.2.58-.63c0-.18,0-.37,0-.56l0,0,.94,0Z" transform="translate(-924.79 -557.66)"/><path class="cls-4" d="M929.7,557.78l0,.85c-.31,0-.65-.09-.93.15-.41,0-.83,0-1.24,0s-.76,0-.75.56l-.1.37h-1.77c0-.3-.14-.86.08-.82,1.48.24,2.26-1.74,3.82-1.15A2.77,2.77,0,0,0,929.7,557.78Z" transform="translate(-924.79 -557.66)"/><path class="cls-4" d="M946.26,581.21l0-.91h3c.1.71-.16,1-.93,1S947,581.22,946.26,581.21Z" transform="translate(-924.79 -557.66)"/><path class="cls-5" d="M926.82,566.27a2.76,2.76,0,0,1,.08.27c0,1.73-1.28.85-2,1l0-1C925.49,566.5,926.22,566.79,926.82,566.27Z" transform="translate(-924.79 -557.66)"/><path class="cls-2" d="M926.84,578.2l-.7.17h-1.23l0-1.08,1.78,0Z" transform="translate(-924.79 -557.66)"/><path class="cls-2" d="M951.11,577.31a1.09,1.09,0,0,1-.19,1.08c-.73,0-.79.43-.75,1l0,0-.94,0v-.93c.94.1,1-.54,1-1.19l0,0Z" transform="translate(-924.79 -557.66)"/><path class="cls-4" d="M926.87,560.71c.06.84-.3,1.16-1.14,1a5.47,5.47,0,0,0-.91,0l.06-.88h2l0-.07Z" transform="translate(-924.79 -557.66)"/><path class="cls-4" d="M926.89,570.5c0,.81-.33,1.15-1.16,1a5.39,5.39,0,0,0-.9,0c0-.3,0-.6,0-.9Z" transform="translate(-924.79 -557.66)"/><path class="cls-4" d="M949.26,561.66c0-.31-.07-.62-.11-.93,0-.68.23-1.13,1-1,0,.63,0,1.26,0,1.89l0,0h-.94Z" transform="translate(-924.79 -557.66)"/><path class="cls-4" d="M926.66,577.26l-1.78,0-.06-.91h1.82C926.65,576.66,926.65,577,926.66,577.26Z" transform="translate(-924.79 -557.66)"/><path class="cls-2" d="M926.75,560.78h-1.87c0-.35,0-.7,0-1h1.77Z" transform="translate(-924.79 -557.66)"/><path class="cls-2" d="M950.18,561.67c0-.63,0-1.26,0-1.89v0l.93,0v1.94Z" transform="translate(-924.79 -557.66)"/><path class="cls-5" d="M949.24,568.65c-.31-.91.12-1.22,1-1.18l.91,0a.27.27,0,0,1,0,.18c-.42,0-.93-.16-1,.61C950.15,568.8,949.55,568.5,949.24,568.65Z" transform="translate(-924.79 -557.66)"/><path class="cls-4" d="M949.25,579.38l.94,0c.14.77-.23,1-1,.94h0l0-.92Z" transform="translate(-924.79 -557.66)"/><path class="cls-4" d="M951.11,577.31l-.93,0c-.14-.77.17-1.08.93-.94Z" transform="translate(-924.79 -557.66)"/><path class="cls-4" d="M951.11,559.77l-.93,0c.1-.35-.27-.95.47-1S951.09,559.39,951.11,559.77Z" transform="translate(-924.79 -557.66)"/><path class="cls-4" d="M951.12,571.48l-.94,0c-.11-.72.15-1.1.93-.94Z" transform="translate(-924.79 -557.66)"/><path class="cls-4" d="M951.11,567.44l-.91,0c-.2-.82.23-1,.92-.88Z" transform="translate(-924.79 -557.66)"/><path class="cls-4" d="M950.17,579.37c0-.55,0-1,.75-1C951.24,579.25,951.24,579.25,950.17,579.37Z" transform="translate(-924.79 -557.66)"/><path class="cls-5" d="M939.69,559.79l-.19.2a.29.29,0,0,1-.07-.2Z" transform="translate(-924.79 -557.66)"/><path class="cls-5" d="M948.59,569.51l.59-.36C949.26,569.71,948.89,569.55,948.59,569.51Z" transform="translate(-924.79 -557.66)"/><path class="cls-5" d="M939.5,567.51c.26.29.14.63.12,1C939.31,568.18,939.46,567.84,939.5,567.51Z" transform="translate(-924.79 -557.66)"/><path class="cls-5" d="M940.5,569.35c.21,0,.42,0,.57.16C940.86,569.55,940.62,569.67,940.5,569.35Z" transform="translate(-924.79 -557.66)"/><path class="cls-5" d="M940.1,568.51a.19.19,0,0,1,.29.09Z" transform="translate(-924.79 -557.66)"/><path class="cls-5" d="M941.6,569.5c.06-.1.11-.1.16,0l-.08,0Z" transform="translate(-924.79 -557.66)"/><path class="cls-4" d="M946.23,566.55a1.48,1.48,0,0,1,0,.93.16.16,0,0,0-.19.08h-.5a2,2,0,0,0-1.13-.07h0c0-.59,0-1.14-.91-.74a.93.93,0,0,1-1-.22l-.22,0,0,0c.06-1.66,1.34-.72,2.07-1h0c-.11.68,0,1.12.86,1,.34-.05.68,0,1-.05Z" transform="translate(-924.79 -557.66)"/><path class="cls-5" d="M948.31,562.58c.56.58.39,1.09-.2,1.49a1.55,1.55,0,0,0-.71,1.54c-.16.28.08.67-.25.9v-.84l0-1.09c0-.59-.24-.87-.83-.81.34-.24.89-.13.92-.86C947.29,562.38,948,562.75,948.31,562.58Z" transform="translate(-924.79 -557.66)"/><path class="cls-4" d="M944.37,565.62c-.15-.69,0-1.11.84-1a6.9,6.9,0,0,0,1,.05h0v1l0,0h-1.87Z" transform="translate(-924.79 -557.66)"/><path class="cls-5" d="M942.73,567.6c-.36.28,0,1-.66,1.07-.93.17-.67-.7-1-1.07l.3-.12.82,0Z" transform="translate(-924.79 -557.66)"/><path class="cls-4" d="M946.34,563.77c.59-.06.87.22.83.81l-.95.1h0Z" transform="translate(-924.79 -557.66)"/><path class="cls-4" d="M942.22,567.5l-.82,0c-.17-.77.18-1,.9-.9l0,0,.05.48Z" transform="translate(-924.79 -557.66)"/><path class="cls-4" d="M930.84,559.8c.35,0,.67-.17.9.41s1,1,1.42,1.51,1.68.87,1.4,2h0c-.75-.12-1.15.11-1,1v0c-.31-.17-.94.36-1-.44v-.7a1.27,1.27,0,0,0-.46-1.4,11.93,11.93,0,0,1-1.51-1.65V560Z" transform="translate(-924.79 -557.66)"/><path class="cls-5" d="M930.72,560.49a11.93,11.93,0,0,0,1.51,1.65,1.27,1.27,0,0,1,.46,1.4,2,2,0,0,1-2.1-1.86l0-.84C930.65,560.72,930.69,560.6,930.72,560.49Z" transform="translate(-924.79 -557.66)"/><path class="cls-4" d="M929.68,560.72h-2.81c0-.28,0-.55,0-.83a13.38,13.38,0,0,1,2.83-.09l0,0v1Z" transform="translate(-924.79 -557.66)"/><path class="cls-4" d="M930.62,560.84l0,.84c-.89.23-1-.3-.91-1h0Z" transform="translate(-924.79 -557.66)"/><path class="cls-5" d="M932.68,564v.27a1.39,1.39,0,0,1-.06-.19S932.66,564,932.68,564Z" transform="translate(-924.79 -557.66)"/><path class="cls-5" d="M931.78,575.39c-.14.29.15.69-.24.91a3.33,3.33,0,0,0-.76-1.88,2.62,2.62,0,0,1,1.63-2.06c.14-.07.18-.31.27-.46-.11.78.74,1,1,1.53l0,.09-.08,0c-.65-.08-1,.19-.87.85v.08h-.07C932,574.4,931.7,574.73,931.78,575.39Z" transform="translate(-924.79 -557.66)"/><path class="cls-4" d="M926.89,575.47a13.7,13.7,0,0,1,2.79-.06h0v1l0,0-2.78,0Z" transform="translate(-924.79 -557.66)"/><path class="cls-4" d="M930.78,574.42a3.33,3.33,0,0,1,.76,1.88l-.94,0,0,0c.12-.76-.13-1.14-1-1h0C929.52,574.5,930,574.27,930.78,574.42Z" transform="translate(-924.79 -557.66)"/><path class="cls-4" d="M933.66,573.43c-.24-.56-1.09-.75-1-1.53s.65-.28,1-.45h0c-.09.72-.14,1.4,1,1.18l0,0C934.73,573.4,934.35,573.58,933.66,573.43Z" transform="translate(-924.79 -557.66)"/><path class="cls-5" d="M926.89,575.47c0,.28,0,.56,0,.84l0,1.09,0,.8-.18-.94c0-.3,0-.6,0-.89C926.84,576.1,926.56,575.7,926.89,575.47Z" transform="translate(-924.79 -557.66)"/><path class="cls-5" d="M944.37,578.44a2.85,2.85,0,0,1-2.12-2.1c0-.54.12-1.25-.86-.91h0l0-.06c-.09-.32.17-.83-.45-.86s-.34-.44-.38-.73,0-.45.31-.48a.61.61,0,0,1,.73.41c.22.77.51.6.84.07a.73.73,0,0,0,.64.64c-.51.09-.48.5-.51.87-.1.73-.33,1.58,1,1.05l0,0c-.17.81.14,1.13,1,.95v1.17Z" transform="translate(-924.79 -557.66)"/><path class="cls-4" d="M946.22,578.44l2.8-.21c.05.43.05.84-.44,1h-1a1.51,1.51,0,0,0-1.16-.06c-.24-.21-.07-.53-.19-.78Z" transform="translate(-924.79 -557.66)"/><path class="cls-4" d="M945.28,577.28c.93-.1,1.15.35.94,1.16h-.94l0,0v-1.18Z" transform="translate(-924.79 -557.66)"/><path class="cls-4" d="M950.2,577.26c0,.65,0,1.29-1,1.19l0-.3C949,577.26,949.64,577.31,950.2,577.26Z" transform="translate(-924.79 -557.66)"/><path class="cls-4" d="M944.35,576.35c.75-.12,1.14.11.93.93h-.92v-.92Z" transform="translate(-924.79 -557.66)"/><path class="cls-4" d="M943.42,575.42c.86-.24,1,.2.93.93h-.93l0,0v-.93Z" transform="translate(-924.79 -557.66)"/><path class="cls-4" d="M942.49,575.3c0-.37,0-.78.51-.87.7.1.25.68.42,1v0Z" transform="translate(-924.79 -557.66)"/><path class="cls-5" d="M949.21,578.15l0,.3v.93h0l-.69-.11c.49-.19.49-.6.44-1A.22.22,0,0,1,949.21,578.15Z" transform="translate(-924.79 -557.66)"/><path class="cls-2" d="M926.87,577.4l0-1.09,2.78,0v1l0,0Z" transform="translate(-924.79 -557.66)"/><path class="cls-5" d="M925.89,578.38h0Z" transform="translate(-924.79 -557.66)"/><path class="cls-4" d="M929.67,577.29v-1l0,0h1l0,0C930.71,577.06,930.58,577.55,929.67,577.29Z" transform="translate(-924.79 -557.66)"/><path class="cls-4" d="M931.78,575.39c-.08-.66.19-1,.88-.89C932.79,575.22,932.53,575.54,931.78,575.39Z" transform="translate(-924.79 -557.66)"/><path class="cls-4" d="M932.73,574.41c-.08-.66.22-.93.87-.85C933.77,574.31,933.44,574.55,932.73,574.41Z" transform="translate(-924.79 -557.66)"/><path class="cls-2" d="M948.58,579.26l.69.11,0,.92h-3a.24.24,0,0,1-.16,0c.59-1-.09-1-.77-.89l0,0,0-1h1c.12.25-.05.57.19.78a1.55,1.55,0,0,0,1.16.06Z" transform="translate(-924.79 -557.66)"/><path class="cls-4" d="M941.39,575.43c1-.34.83.37.86.91C941.45,576.52,941.26,576.12,941.39,575.43Z" transform="translate(-924.79 -557.66)"/><path class="cls-4" d="M945.28,578.43l0,1c-.61,0-1.17-.09-.93-.95h.94Z" transform="translate(-924.79 -557.66)"/><path class="cls-4" d="M945.28,579.36c.68-.06,1.36-.14.77.89C945.19,580.47,945.28,579.88,945.28,579.36Z" transform="translate(-924.79 -557.66)"/><path class="cls-4" d="M929.74,558.82c.29,0,.59-.09.86.09,0,.27,0,.55,0,.83l-.93,0,0,0v-.94Z" transform="translate(-924.79 -557.66)"/><path class="cls-5" d="M930.59,559.74c0-.28,0-.56,0-.83.28.24.07.62.24.89l-.12.23Z" transform="translate(-924.79 -557.66)"/><path class="cls-5" d="M928.75,558.78c.28-.24.62-.12.93-.15a.12.12,0,0,1,.06.19l0,0Z" transform="translate(-924.79 -557.66)"/><path class="cls-2" d="M942.22,567.5l.11-.46c0-.17.11-.34.17-.51a.93.93,0,0,0,1,.22c.87-.4.89.15.91.74l-.51.15-.08-.06-.09,0-1,0Z" transform="translate(-924.79 -557.66)"/><path class="cls-5" d="M944.37,567.49a2,2,0,0,1,1.13.07l-1.16.1,0-.09Z" transform="translate(-924.79 -557.66)"/><path class="cls-5" d="M943.69,567.63l.09,0,.08.06Z" transform="translate(-924.79 -557.66)"/><path class="cls-2" d="M933.63,564.7c-.2-.84.2-1.07,1-1l0,1,0,0Z" transform="translate(-924.79 -557.66)"/><path class="cls-2" d="M934.54,564.72c.35,0,.76-.28,1,.19a.49.49,0,0,1-.1.62.76.76,0,0,1-.52.08c-.6-.11-.22-.61-.35-.92Z" transform="translate(-924.79 -557.66)"/><path class="cls-2" d="M934.58,572.62c-1.09.22-1-.46-1-1.18C934.61,571.3,934.67,571.9,934.58,572.62Z" transform="translate(-924.79 -557.66)"/><path class="cls-4" d="M947.15,565.67v.84a1.32,1.32,0,0,1-.92,0h0v-.95l0,0Z" transform="translate(-924.79 -557.66)"/><path class="cls-5" d="M946,567.56a.16.16,0,0,1,.19-.08C946.17,567.62,946.12,567.67,946,567.56Z" transform="translate(-924.79 -557.66)"/><path class="cls-2" d="M949.25,561.65h1c0,.19,0,.38,0,.56,0,.43-.15.63-.58.63s-.4-.34-.4-.62S949.24,561.83,949.25,561.65Z" transform="translate(-924.79 -557.66)"/><path class="cls-2" d="M928.75,558.78l.94.08v.94a13.38,13.38,0,0,0-2.83.09c0-.18-.07-.35-.1-.53,0-.54.34-.57.75-.56S928.34,558.79,928.75,558.78Z" transform="translate(-924.79 -557.66)"/><path class="cls-5" d="M926.76,559.36c0,.18.07.35.1.53s0,.55,0,.83l0,.07h-.08l-.09-1C926.69,559.6,926.72,559.48,926.76,559.36Z" transform="translate(-924.79 -557.66)"/><path class="cls-2" d="M946.24,565.61v.95c-.35,0-.69,0-1,.05-.83.12-1-.32-.86-1Z" transform="translate(-924.79 -557.66)"/><path class="cls-5" d="M942.5,566.53c-.06.17-.12.34-.17.51,0-.16,0-.32-.05-.48Z" transform="translate(-924.79 -557.66)"/><path class="cls-2" d="M947.15,565.67l-.94,0v-1l.95-.1C947.16,564.94,947.15,565.3,947.15,565.67Z" transform="translate(-924.79 -557.66)"/><path class="cls-2" d="M930.59,559.74l.13.29v.46l-.1.35-1-.11v-1Z" transform="translate(-924.79 -557.66)"/><path class="cls-2" d="M930.62,576.35h-1v-1C930.49,575.21,930.74,575.59,930.62,576.35Z" transform="translate(-924.79 -557.66)"/><path class="cls-2" d="M945.31,578.45h-.94v-1.19h.94Z" transform="translate(-924.79 -557.66)"/><path class="cls-2" d="M942.49,575.3l.94.1v1C942.16,576.88,942.39,576,942.49,575.3Z" transform="translate(-924.79 -557.66)"/><path class="cls-2" d="M943.42,576.33h1v.94C943.56,577.46,943.25,577.14,943.42,576.33Z" transform="translate(-924.79 -557.66)"/><path class="cls-5" d="M947.58,579.27a1.55,1.55,0,0,1-1.16-.06A1.51,1.51,0,0,1,947.58,579.27Z" transform="translate(-924.79 -557.66)"/></svg>