<svg id="Calque_1" data-name="Calque 1" xmlns="http://www.w3.org/2000/svg" viewBox="0 0 44.07 35"><defs><style>.cls-1,.cls-2{fill:#575651;}.cls-2{font-size:7px;font-family:Montserrat-Light, Montserrat;font-weight:300;}</style></defs><path class="cls-1" d="M983.84,571.63a7.6,7.6,0,0,1-1,1.72,4.48,4.48,0,0,1-1.13,1.1,4.93,4.93,0,0,1-1.23.58,4.1,4.1,0,0,1-1.27.18,9.39,9.39,0,0,1-1.2-.11,5.69,5.69,0,0,1-1.08-.27l-.87-.34a5.07,5.07,0,0,1-.57-.28l-.21-.13a12.14,12.14,0,0,1-3.61,4.48,7.94,7.94,0,0,1-4.79,1.65.55.55,0,0,1-.56-.56.5.5,0,0,1,.16-.39.54.54,0,0,1,.4-.16,6.83,6.83,0,0,0,4-1.34,10.44,10.44,0,0,0,3.13-3.67,6.58,6.58,0,0,1-.89.29,6.92,6.92,0,0,1-1,.16,4.71,4.71,0,0,1-1.13,0,4.35,4.35,0,0,1-1.16-.35,4.89,4.89,0,0,1-1.15-.74,5.67,5.67,0,0,1-1.05-1.25,9.38,9.38,0,0,1-.93-1.82,9.84,9.84,0,0,1,2.67-.71,6,6,0,0,1,2.08.1,4.88,4.88,0,0,1,1.56.7,5.75,5.75,0,0,1,1.1,1,7.09,7.09,0,0,1,.7,1,16.91,16.91,0,0,0,1-3.62l-.23,0-.58,0a8.19,8.19,0,0,1-.86,0,7.48,7.48,0,0,1-1-.12,7.07,7.07,0,0,1-1.1-.29,5.18,5.18,0,0,1-1-.53,4,4,0,0,1-.93-.81,3.9,3.9,0,0,1-.68-1.18,5.46,5.46,0,0,1-.36-1.58,6.66,6.66,0,0,1,1.67-.46,4.35,4.35,0,0,1,1.4,0,4.85,4.85,0,0,1,1.15.38,3.56,3.56,0,0,1,.91.62,9.84,9.84,0,0,1,.7.76,4.13,4.13,0,0,1,.52.79c.14.26.25.49.35.69a5.12,5.12,0,0,1,.19.5l.05.2q.15-1.53.15-2.43l-.26-.2a6.68,6.68,0,0,1-.61-.56,8.24,8.24,0,0,1-.8-.89,6.72,6.72,0,0,1-.67-1.16,4.86,4.86,0,0,1-.41-1.4,4,4,0,0,1,.15-1.58,5.22,5.22,0,0,1,.87-1.73,6.53,6.53,0,0,1,1.59.77,4.28,4.28,0,0,1,1,1,4.65,4.65,0,0,1,.6,1.06,3.45,3.45,0,0,1,.26,1.11,7.47,7.47,0,0,1,0,1.06,4.58,4.58,0,0,1-.16,1c-.08.29-.16.55-.24.77a2.76,2.76,0,0,1-.21.52l-.09.19a5.34,5.34,0,0,1,0,.63c0,.38,0,.67,0,.89l.13-.23c.06-.1.18-.27.38-.54a5.42,5.42,0,0,1,.63-.72,5.87,5.87,0,0,1,.88-.69,4.59,4.59,0,0,1,1.14-.55,4.52,4.52,0,0,1,1.4-.19,5.54,5.54,0,0,1,1.65.3,6.85,6.85,0,0,1-.27,1.77,4.37,4.37,0,0,1-.62,1.3,4.59,4.59,0,0,1-.87.89,3.78,3.78,0,0,1-1,.57c-.36.12-.71.22-1.06.3a5.08,5.08,0,0,1-1,.11c-.32,0-.6,0-.84,0a5.71,5.71,0,0,1-.58-.05l-.22,0a18.11,18.11,0,0,1-.91,3.53l.23-.23a7.76,7.76,0,0,1,.62-.52,8.52,8.52,0,0,1,1-.65,6.09,6.09,0,0,1,1.24-.52,5.1,5.1,0,0,1,1.47-.25,4.73,4.73,0,0,1,1.6.29A5.68,5.68,0,0,1,983.84,571.63Z" transform="translate(-952.4 -557.88)"/><text class="cls-2" transform="translate(7.65 30.69)">Botanique</text></svg>