<svg id="Calque_1" data-name="Calque 1" xmlns="http://www.w3.org/2000/svg" viewBox="0 0 44.07 34.05"><defs><style>.cls-1,.cls-2{fill:#575651;}.cls-2{font-size:7px;font-family:Montserrat-Light, Montserrat;font-weight:300;}</style></defs><path class="cls-1" d="M987.19,560.36v16.81a1.93,1.93,0,0,1-.59,1.41,1.89,1.89,0,0,1-1.41.59h-20a1.89,1.89,0,0,1-1.41-.59,1.93,1.93,0,0,1-.59-1.41V560.36a1.93,1.93,0,0,1,.59-1.41,1.89,1.89,0,0,1,1.41-.59h20a1.89,1.89,0,0,1,1.41.59A1.93,1.93,0,0,1,987.19,560.36Zm-19.21,2v-1.6a.76.76,0,0,0-.24-.56.77.77,0,0,0-.56-.24h-1.61a.77.77,0,0,0-.56.24.76.76,0,0,0-.24.56v1.6a.74.74,0,0,0,.24.56.77.77,0,0,0,.56.24h1.61a.77.77,0,0,0,.56-.24A.74.74,0,0,0,968,562.36Zm0,4.8v-1.6a.82.82,0,0,0-.8-.8h-1.61a.82.82,0,0,0-.8.8v1.6a.78.78,0,0,0,.24.57.76.76,0,0,0,.56.23h1.61a.76.76,0,0,0,.56-.23A.78.78,0,0,0,968,567.16Zm0,4.81v-1.6a.78.78,0,0,0-.24-.57.8.8,0,0,0-.56-.23h-1.61a.8.8,0,0,0-.56.23.78.78,0,0,0-.24.57V572a.82.82,0,0,0,.8.8h1.61a.82.82,0,0,0,.8-.8Zm0,4.8v-1.6a.74.74,0,0,0-.24-.56.77.77,0,0,0-.56-.24h-1.61a.77.77,0,0,0-.56.24.74.74,0,0,0-.24.56v1.6a.76.76,0,0,0,.24.56.77.77,0,0,0,.56.24h1.61a.77.77,0,0,0,.56-.24A.76.76,0,0,0,968,576.77Zm12.8-9.61v-6.4a.8.8,0,0,0-.8-.8h-9.6a.8.8,0,0,0-.8.8v6.4a.81.81,0,0,0,.23.57.77.77,0,0,0,.57.23H980a.77.77,0,0,0,.57-.23A.81.81,0,0,0,980.78,567.16Zm0,9.61v-6.4a.79.79,0,0,0-.8-.8h-9.6a.79.79,0,0,0-.8.8v6.4a.8.8,0,0,0,.8.8H980a.8.8,0,0,0,.8-.8Zm4.81-14.41v-1.6a.76.76,0,0,0-.24-.56.77.77,0,0,0-.56-.24h-1.6a.78.78,0,0,0-.57.24.76.76,0,0,0-.24.56v1.6a.74.74,0,0,0,.24.56.78.78,0,0,0,.57.24h1.6a.77.77,0,0,0,.56-.24A.74.74,0,0,0,985.59,562.36Zm0,4.8v-1.6a.82.82,0,0,0-.8-.8h-1.6a.82.82,0,0,0-.81.8v1.6a.78.78,0,0,0,.24.57.77.77,0,0,0,.57.23h1.6a.76.76,0,0,0,.56-.23A.78.78,0,0,0,985.59,567.16Zm0,4.81v-1.6a.78.78,0,0,0-.24-.57.8.8,0,0,0-.56-.23h-1.6a.81.81,0,0,0-.57.23.78.78,0,0,0-.24.57V572a.82.82,0,0,0,.81.8h1.6a.82.82,0,0,0,.8-.8Zm0,4.8v-1.6a.74.74,0,0,0-.24-.56.77.77,0,0,0-.56-.24h-1.6a.78.78,0,0,0-.57.24.74.74,0,0,0-.24.56v1.6a.76.76,0,0,0,.24.56.78.78,0,0,0,.57.24h1.6a.77.77,0,0,0,.56-.24A.76.76,0,0,0,985.59,576.77Z" transform="translate(-953.05 -558.36)"/><text class="cls-2" transform="translate(11.15 29.73)">Cinéma</text></svg>