<svg id="Calque_1" data-name="Calque 1" xmlns="http://www.w3.org/2000/svg" viewBox="0 0 43.8 35.7"><defs><style>.cls-1{fill:#bdac92;}.cls-2{fill:#af9a7e;}.cls-3{fill:#907857;}.cls-4{fill:#5d4e39;}.cls-5{fill:#7e694b;}.cls-6{fill:#f6d434;}.cls-7{fill:#7f4f1f;}.cls-8{fill:#d3b22f;}.cls-9{fill:#898990;}.cls-10{fill:#797982;}.cls-11{fill:#e9e6dd;}.cls-12{fill:#acacb1;}.cls-13{fill:#3e3e42;}</style></defs><path class="cls-1" d="M995,575.56v-3.87h2V566.3H991.6v.59h-5.14V562h-5v.72H970.62V562h-5v4.93H961v-.59h-5.39v5.39h.52v18.07h-.52v5.39H961v-1.83H991.6v1.83H997v-5.39h-2v-14.2Zm-24.42-11.11h10.85v2.44H970.62Z" transform="translate(-953.18 -559.45)"/><rect class="cls-2" x="0.52" y="4.93" width="38.94" height="26.42"/><rect class="cls-3" x="3.97" y="8.38" width="32.05" height="19.41"/><rect class="cls-4" x="0.52" y="13.59" width="38.94" height="0.98"/><rect class="cls-5" x="3.97" y="21.07" width="32.05" height="0.98"/><rect class="cls-5" x="3.97" y="8.38" width="32.05" height="2.69"/><rect class="cls-5" x="17.87" y="12.42" width="4.25" height="6.54"/><rect class="cls-6" x="17.87" y="10.97" width="4.25" height="6.54"/><rect class="cls-7" x="19.41" y="12.86" width="1.17" height="2.77"/><rect class="cls-8" x="17.87" y="16.39" width="4.25" height="1.12"/><rect class="cls-3" x="0.52" y="9.72" width="3.45" height="1.35"/><rect class="cls-9" y="4.33" width="5.39" height="5.39"/><rect class="cls-10" y="8.38" width="5.39" height="1.35"/><rect class="cls-10" x="2.31" y="6.64" width="1.74" height="1.74"/><rect class="cls-11" x="1.83" y="6.16" width="1.74" height="1.74"/><rect class="cls-9" x="36.02" y="4.33" width="5.39" height="5.39"/><rect class="cls-10" x="36.02" y="8.38" width="5.39" height="1.35"/><rect class="cls-10" x="38.32" y="6.64" width="1.74" height="1.74"/><rect class="cls-11" x="37.84" y="6.16" width="1.74" height="1.74"/><rect class="cls-9" y="27.79" width="5.39" height="5.39"/><rect class="cls-10" y="31.84" width="5.39" height="1.35"/><rect class="cls-10" x="2.31" y="30.1" width="1.74" height="1.74"/><rect class="cls-11" x="1.83" y="29.62" width="1.74" height="1.74"/><rect class="cls-9" x="36.02" y="27.79" width="5.39" height="5.39"/><rect class="cls-10" x="36.02" y="31.84" width="5.39" height="1.35"/><rect class="cls-10" x="38.32" y="30.1" width="1.74" height="1.74"/><rect class="cls-11" x="37.84" y="29.62" width="1.74" height="1.74"/><rect class="cls-12" x="10.06" width="4.98" height="4.98"/><rect class="cls-12" x="25.9" width="4.98" height="4.98"/><rect class="cls-13" x="15.04" y="0.72" width="10.86" height="1.77"/></svg>