<svg id="Calque_1" data-name="Calque 1" xmlns="http://www.w3.org/2000/svg" viewBox="0 0 44.21 36.35"><defs><style>.cls-1{fill:#bdac92;}.cls-2{fill:#fdf7d0;}.cls-3{fill:#c1a334;}.cls-4{fill:#f5cd23;}.cls-5{fill:#e4bf2a;}.cls-6{fill:#5a9348;}</style></defs><polygon class="cls-1" points="10.19 3 9.47 6.7 9.43 6.9 8.7 10.6 7.6 16.26 7.18 18.4 4.65 17.9 4.42 19.08 4 21.23 3.54 23.59 3.12 25.74 2.89 26.91 1.82 26.7 1.51 28.29 42.72 36.35 43.03 34.77 41.96 34.56 42.19 33.38 42.61 31.23 43.07 28.88 43.49 26.73 43.72 25.55 41.2 25.05 41.62 22.92 42.72 17.25 43.45 13.55 43.49 13.35 44.21 9.65 41.78 9.18 41.06 12.88 36.75 12.04 35.99 15.94 31.8 15.12 32.57 11.22 29.39 10.6 30.11 6.89 24.29 5.75 23.57 9.46 20.39 8.83 19.62 12.73 15.44 11.91 16.2 8.01 11.89 7.17 12.62 3.47 10.19 3"/><rect class="cls-2" x="939.58" y="540.62" width="39.81" height="9.18" transform="translate(-815.11 -696.1) rotate(11.07)"/><rect class="cls-3" x="937.45" y="549.7" width="42" height="1.61" transform="translate(-814.11 -695.81) rotate(11.07)"/><rect class="cls-4" x="943.8" y="532.83" width="34.67" height="7.95" transform="translate(-816.69 -696.58) rotate(11.07)"/><rect class="cls-5" x="959.68" y="532.83" width="2.91" height="7.95" transform="translate(-816.69 -696.58) rotate(11.07)"/><rect class="cls-5" x="944.09" y="529.78" width="2.91" height="7.95" transform="translate(-817.57 -693.64) rotate(11.07)"/><rect class="cls-5" x="975.26" y="535.88" width="2.91" height="7.95" transform="translate(-815.82 -699.51) rotate(11.07)"/><rect class="cls-5" x="943.25" y="538.54" width="34.67" height="2.18" transform="translate(-816.16 -696.42) rotate(11.07)"/><rect class="cls-4" x="945.2" y="526.29" width="6.86" height="3.97" transform="translate(-818.56 -694.33) rotate(11.07)"/><rect class="cls-4" x="945.97" y="522.17" width="2.47" height="3.97" transform="translate(-819.38 -694.14) rotate(11.07)"/><rect class="cls-4" x="972.49" y="531.63" width="6.86" height="3.97" transform="translate(893.49 722.77) rotate(-168.93)"/><rect class="cls-4" x="956.07" y="528.96" width="12.41" height="3.97" transform="translate(866.97 714.86) rotate(-168.93)"/><rect class="cls-4" x="960.04" y="525.26" width="5.93" height="3.97" transform="translate(869.12 707.67) rotate(-168.93)"/><rect class="cls-4" x="977.56" y="528.35" width="2.47" height="3.97" transform="translate(899.82 716.83) rotate(-168.93)"/><rect class="cls-4" x="957.09" y="542.81" width="4.8" height="4.8" transform="translate(-61.33 -1077.2) rotate(56.07)"/><rect class="cls-6" x="958.64" y="544.36" width="1.7" height="1.7" transform="matrix(0.56, 0.83, -0.83, 0.56, -61.33, -1077.2)"/><polygon class="cls-4" points="1.61 22.74 2.91 16.09 5.59 20.06 1.61 22.74"/><polygon class="cls-4" points="41.98 23.73 40.68 30.39 38.01 26.41 41.98 23.73"/><polygon class="cls-6" points="2.03 20.59 2.49 18.23 3.44 19.64 2.03 20.59"/><polygon class="cls-6" points="41.1 28.24 40.15 26.83 41.56 25.88 41.1 28.24"/></svg>