<svg id="Calque_1" data-name="Calque 1" xmlns="http://www.w3.org/2000/svg" viewBox="0 0 39.49 29.45"><defs><style>.cls-1{fill:#d6cbbc;}.cls-2{fill:#a77eb6;}.cls-3{fill:#8a5ca1;}.cls-4{fill:#ccb2d3;}</style></defs><polygon class="cls-1" points="30.13 2.74 13.79 1.05 6.72 0.32 3.8 4.65 3.66 5.98 3.33 9.23 7.12 9.62 6.65 14.2 10.54 14.6 10.08 19.02 13.97 19.42 13.5 24 17.61 24.42 17.14 29 21.46 29.45 21.93 24.87 26.04 25.29 26.52 20.71 30.41 21.11 30.86 16.7 34.75 17.1 35.22 12.52 39.02 12.91 39.35 9.66 39.49 8.33 37.21 3.47 30.13 2.74"/><polygon class="cls-2" points="36.16 8.01 0.47 4.33 3.4 0 33.88 3.15 36.16 8.01"/><rect class="cls-3" x="943.53" y="536.16" width="28.25" height="4.6" transform="translate(-879.73 -620.87) rotate(5.89)"/><rect class="cls-3" x="946.99" y="540.57" width="20.43" height="4.6" transform="translate(-879.27 -620.8) rotate(5.89)"/><rect class="cls-3" x="950.42" y="545.15" width="12.61" height="4.6" transform="translate(-878.81 -620.73) rotate(5.89)"/><rect class="cls-2" x="954.56" y="545.15" width="4.35" height="4.6" transform="translate(-878.81 -620.73) rotate(5.89)"/><rect class="cls-2" x="953.32" y="540.66" width="7.75" height="4.6" transform="translate(-879.27 -620.8) rotate(5.89)"/><rect class="cls-2" x="951.05" y="536.08" width="13.23" height="4.6" transform="translate(-879.73 -620.87) rotate(5.89)"/><rect class="cls-3" x="954.08" y="549.73" width="4.35" height="4.6" transform="translate(-878.34 -620.65) rotate(5.89)"/><rect class="cls-3" x="940.19" y="531.58" width="35.88" height="4.6" transform="translate(-880.19 -620.94) rotate(5.89)"/><rect class="cls-2" x="947.92" y="531.58" width="20.43" height="4.6" transform="translate(-880.19 -620.94) rotate(5.89)"/><polygon class="cls-4" points="28.48 7.22 8.16 5.12 10.47 0.73 26.81 2.42 28.48 7.22"/><rect class="cls-4" x="940.36" y="531.59" width="35.88" height="1.34" transform="translate(-880.36 -620.97) rotate(5.89)"/></svg>