<svg id="Calque_1" data-name="Calque 1" xmlns="http://www.w3.org/2000/svg" viewBox="0 0 26.91 39.07"><defs><style>.cls-1{fill:#bdac92;}.cls-2{fill:#fbfbfb;}.cls-3{fill:#246db4;}.cls-4{fill:#e00c1a;}.cls-5{fill:#c2cac7;}</style></defs><path class="cls-1" d="M988.43,562.06c0-.31.19-.75-.34-.85s-.48.41-.66.52c-.75.47-1,1.56-2.28,1.45-1.8-.15-3.63,0-5.45,0l-1.26-.09c-.26,0-.66,0-.67-.29,0-.88-.65-.67-1.15-.69s-1.48.09-1.54-.1c-.49-1.43-1.64-.67-2.48-.86-.28-.06-.7.11-.71-.36,0-.77-.54-.57-1-.59h-5.83c-.41,0-.86-.1-1,.53s-.59.44-.94.39c-.88-.12-1.13.22-1.13,1.09,0,6.48,0,13,0,19.45l.95,0-.95,0c0,4.67,0,9.34,0,14,0,.68,0,1.31,1,1,.79.21,1.08,0,1.08-.91,0-4.7,0-9.4,0-14.1-.1-.75.2-1,1-1,1.94,0,3.87,0,5.81,0,.29,0,.8-.14.84.17.15,1.23,1,.66,1.66.79.43.09,1.14-.24,1.24.25.2,1,.87.64,1.42.72s1.37-.27,1.5.19c.4,1.41,1.36.68,2.12.73,2.09.2,4.18,0,6.28.09.3,0,.48-.07.54-.43a2.35,2.35,0,0,1,1.32-1.43c.68-.32.59-.68.6-1.14V570.55C988.44,567.72,988.45,564.89,988.43,562.06Z" transform="translate(-961.56 -557.74)"/><path class="cls-2" d="M970.42,557.76c.43,0,1-.19,1,.58,0,.47.43.31.7.37.84.19,2-.58,2.48.86.06.18,1,.07,1.54.09s1.12-.19,1.16.69c0,.33.4.27.66.29l1.26.09v20.38c-.76-.06-1.72.68-2.12-.74-.13-.46-1-.12-1.5-.19s-1.21.27-1.42-.71c-.1-.49-.81-.16-1.23-.26-.61-.13-1.52.44-1.67-.78,0-.31-.55-.13-.84-.18Z" transform="translate(-961.56 -557.74)"/><path class="cls-3" d="M970.42,557.76v20.49c-1.93,0-3.87,0-5.81,0-.77,0-1.07.26-1,1l-1.1,0-.95,0c0-6.48,0-13,0-19.45,0-.87.24-1.21,1.12-1.08.35,0,.85.16,1-.39s.56-.54,1-.54Z" transform="translate(-961.56 -557.74)"/><path class="cls-4" d="M979.2,581.11V560.73c1.82,0,3.65-.19,5.45,0,1.26.11,1.53-1,2.28-1.45.19-.12.22-.61.66-.53s.34.55.34.85c0,2.83,0,5.67,0,8.5,0,3.37,0,6.75,0,10.13,0,.45.08.81-.59,1.13a2.35,2.35,0,0,0-1.32,1.43c-.07.37-.25.44-.55.43C983.39,581.15,981.29,581.3,979.2,581.11Z" transform="translate(-961.56 -557.74)"/><path class="cls-2" d="M962.54,579.26l1.1,0c0,4.7,0,9.4,0,14.1,0,.87-.29,1.12-1.08.92Q962.55,586.76,962.54,579.26Z" transform="translate(-961.56 -557.74)"/><path class="cls-5" d="M962.54,579.26q0,7.5,0,15c-1,.28-1-.35-1-1q0-7,0-14Z" transform="translate(-961.56 -557.74)"/></svg>