<svg id="Calque_1" data-name="Calque 1" xmlns="http://www.w3.org/2000/svg" viewBox="0 0 292.08 46.07"><defs><style>.cls-1{fill:#be2918;}.cls-2{fill:#9d2318;}.cls-3{fill:#7f1b13;}.cls-4{fill:#e15f3f;}.cls-5{fill:#ce4e34;}.cls-6{fill:#e57754;}.cls-7{fill:#6f180e;}</style></defs><polygon class="cls-1" points="292.08 17.13 292.08 5.9 261.14 5.9 261.14 46.07 292.08 46.07 292.08 34.84 283.63 34.84 283.63 17.13 292.08 17.13"/><polygon class="cls-1" points="0 5.9 0 17.13 8.45 17.13 8.45 34.84 0 34.84 0 46.07 30.94 46.07 30.94 5.9 0 5.9"/><rect class="cls-2" x="1074.89" y="523.01" width="6.56" height="40.18" transform="translate(1342.59 569.08) rotate(180)"/><rect class="cls-2" x="837.93" y="523.01" width="6.56" height="40.18" transform="translate(868.67 569.08) rotate(180)"/><polygon class="cls-3" points="30.74 46.07 30.74 35.24 46.65 35.24 30.74 46.07"/><polygon class="cls-3" points="261.14 46.07 245.23 35.24 261.14 35.24 261.14 46.07"/><rect class="cls-4" x="30.74" width="230.4" height="35.24"/><rect class="cls-5" x="30.74" y="29.35" width="230.4" height="5.9"/><rect class="cls-6" x="30.74" width="230.4" height="5.9"/><path class="cls-7" d="M896.15,541.47h-9.3v-1h-1v-8.27h1v-1h9.3v2.07H890v6.19H892v-2.06h-1v-2.07h5.17Z" transform="translate(-813.75 -517.11)"/><path class="cls-7" d="M908.38,541.47h-4.13v-4.13h-2.07v4.13h-4.13v-9.3h1v-1h8.26v1h1Zm-4.13-6.2v-2.06h-2.07v2.06Z" transform="translate(-813.75 -517.11)"/><path class="cls-7" d="M926.84,541.47h-4.13v-8.26h-2.06v8.26h-4.13v-8.26h-2.07v8.26h-4.13V531.14h15.49v1h1Z" transform="translate(-813.75 -517.11)"/><path class="cls-7" d="M939.11,541.47h-9.29v-1h-1v-8.27h1v-1h9.29v2.07h-6.19v2.06H936v2.07h-3.1v2.06h6.19Z" transform="translate(-813.75 -517.11)"/><path class="cls-7" d="M957.46,540.44h-1v1h-9.3V531.14h9.3v1h1Zm-4.13-1v-6.19h-2.07v6.19Z" transform="translate(-813.75 -517.11)"/><path class="cls-7" d="M969.73,541.47h-9.3v-1h-1v-8.27h1v-1h9.3v2.07h-6.2v2.06h3.1v2.07h-3.1v2.06h6.2Z" transform="translate(-813.75 -517.11)"/><path class="cls-7" d="M982,540.44h-1v1h-9.3V539.4h6.2v-2.06H972.7v-1h-1v-4.14h1v-1H982v2.07h-6.2v2.06H981v1h1Z" transform="translate(-813.75 -517.11)"/><path class="cls-7" d="M988.07,541.47h-4.13V531.14h4.13Z" transform="translate(-813.75 -517.11)"/><path class="cls-7" d="M1000.34,541.47h-9.29v-1h-1v-8.27h1v-1h9.29v2.07h-6.19v6.19h2.06v-2.06h-1v-2.07h5.16Z" transform="translate(-813.75 -517.11)"/><path class="cls-7" d="M1012.61,541.47h-4.13v-8.26h-2.06v8.26h-4.14V531.14h9.3v1h1Z" transform="translate(-813.75 -517.11)"/><path class="cls-7" d="M1024.88,541.47h-9.29v-1h-1v-8.27h1v-1h9.29v2.07h-6.19v2.06h3.09v2.07h-3.09v2.06h6.19Z" transform="translate(-813.75 -517.11)"/><path class="cls-7" d="M1037.15,541.47H1033v-4.13H1031v4.13h-4.14V531.14h9.3v1h1v3.1h-1v2.07h1Zm-4.13-6.2v-2.06H1031v2.06Z" transform="translate(-813.75 -517.11)"/></svg>