<svg id="Calque_1" data-name="Calque 1" xmlns="http://www.w3.org/2000/svg" viewBox="0 0 44.07 34.2"><defs><style>.cls-1,.cls-2{fill:#575651;}.cls-2{font-size:7px;font-family:Montserrat-Light, Montserrat;font-weight:300;}</style></defs><path class="cls-1" d="M984.56,559.48v13.95a1.6,1.6,0,0,1-.43,1.11,2.78,2.78,0,0,1-1.07.76,7,7,0,0,1-1.29.39,5.91,5.91,0,0,1-1.2.14,5.83,5.83,0,0,1-1.2-.14,7,7,0,0,1-1.29-.39,2.82,2.82,0,0,1-1.08-.76,1.64,1.64,0,0,1-.42-1.11,1.67,1.67,0,0,1,.42-1.11,2.91,2.91,0,0,1,1.08-.75,7.09,7.09,0,0,1,1.29-.4,5.78,5.78,0,0,1,1.2-.13,5.68,5.68,0,0,1,2.39.49v-6.7l-9.57,3v8.83a1.64,1.64,0,0,1-.42,1.11,2.86,2.86,0,0,1-1.07.76,7.54,7.54,0,0,1-1.29.39,5.26,5.26,0,0,1-2.41,0,7,7,0,0,1-1.29-.39,2.78,2.78,0,0,1-1.07-.76,1.64,1.64,0,0,1-.42-1.11,1.67,1.67,0,0,1,.42-1.11,2.87,2.87,0,0,1,1.07-.75,7.09,7.09,0,0,1,1.29-.4,5.85,5.85,0,0,1,1.2-.13,5.72,5.72,0,0,1,2.4.49V562.67A1.14,1.14,0,0,1,972,562a1.22,1.22,0,0,1,.61-.44L983,558.33a1.23,1.23,0,0,1,.35-.05,1.17,1.17,0,0,1,.85.35A1.15,1.15,0,0,1,984.56,559.48Z" transform="translate(-953.05 -558.28)"/><text class="cls-2" transform="translate(12.89 29.89)">K-Pop</text></svg>