<svg id="Calque_1" data-name="Calque 1" xmlns="http://www.w3.org/2000/svg" viewBox="0 0 48.53 61.75"><defs><style>.cls-1{fill:#bdac92;}.cls-2,.cls-5{fill:#e9d726;}.cls-2{fill-opacity:0.4;opacity:0.6;}.cls-3{fill:#c1a334;}.cls-4{fill:#a88926;}.cls-6{fill:#f5cd23;}</style></defs><rect class="cls-1" x="19.24" y="44.73" width="17.06" height="17.02"/><rect class="cls-1" x="25.22" y="44.73" width="5.11" height="2.51"/><rect class="cls-1" x="19" y="25.44" width="17.53" height="19.29"/><path class="cls-1" d="M967.94,527.18v11.24H950.77V527.18h17.17m4.93-7.07h-27v25.38h27V520.11Z" transform="translate(-931.58 -500.76)"/><rect class="cls-1" x="21.3" y="44.73" width="12.94" height="10.47"/><circle class="cls-2" cx="24.27" cy="24.27" r="24.27"/><path class="cls-1" d="M966.23,533.53v7.84h-6v-7.84Zm-17.17,7.84v-7.84h6v7.84Z" transform="translate(-931.58 -500.76)"/><rect class="cls-3" x="14.28" y="41.61" width="17.45" height="17.02"/><rect class="cls-4" x="20.45" y="41.61" width="5.11" height="6.24"/><rect class="cls-5" x="14.24" y="22.32" width="17.53" height="19.29"/><path class="cls-6" d="M963.17,524.06V535.3H946V524.06h17.17m4.94-7.07h-27v25.38h27V517Z" transform="translate(-931.58 -500.76)"/><rect class="cls-6" x="14.31" y="41.61" width="17.39" height="10.47"/></svg>