<svg id="Calque_1" data-name="Calque 1" xmlns="http://www.w3.org/2000/svg" viewBox="0 0 44.07 30.04"><defs><style>.cls-1,.cls-2{fill:#575651;}.cls-2{font-size:7px;font-family:Montserrat-Light, Montserrat;font-weight:300;}</style></defs><path class="cls-1" d="M979,560.36a6.41,6.41,0,0,1,0,12.81,6.27,6.27,0,0,1-4.23-1.6h-2.75a6.27,6.27,0,0,1-4.23,1.6,6.41,6.41,0,0,1,0-12.81Zm-7.2,7.2V566a.41.41,0,0,0-.4-.4H969v-2.4a.39.39,0,0,0-.11-.29.4.4,0,0,0-.29-.11H967a.39.39,0,0,0-.28.11.4.4,0,0,0-.12.29v2.4h-2.4a.38.38,0,0,0-.29.12.39.39,0,0,0-.11.28v1.6a.4.4,0,0,0,.11.29.38.38,0,0,0,.29.11h2.4v2.41a.41.41,0,0,0,.4.4h1.6a.37.37,0,0,0,.29-.12.36.36,0,0,0,.11-.28V568h2.41a.36.36,0,0,0,.28-.11A.37.37,0,0,0,971.84,567.56Zm6.73,1.94a1.61,1.61,0,0,0,0-2.27,1.59,1.59,0,0,0-2.26,0,1.61,1.61,0,0,0,0,2.27,1.59,1.59,0,0,0,2.26,0Zm3.2-3.21a1.5,1.5,0,0,0,.47-1.13,1.51,1.51,0,0,0-.47-1.13,1.6,1.6,0,0,0-2.73,1.13,1.53,1.53,0,0,0,.47,1.13,1.59,1.59,0,0,0,2.26,0Z" transform="translate(-951.23 -560.36)"/><text class="cls-2" transform="translate(5.31 25.73)">Jeux-vidéos</text></svg>