<svg id="Calque_1" data-name="Calque 1" xmlns="http://www.w3.org/2000/svg" viewBox="0 0 59.93 27.08"><defs><style>.cls-1{fill:#bdac92;}.cls-2{fill:#f7d9aa;}.cls-3{fill:#fdf7d0;}.cls-4{fill:#a06225;}.cls-5{fill:#7f4f1f;}.cls-6{fill:#f4c379;}.cls-7{fill:#e15f3f;}.cls-8{fill:#a2492a;}.cls-9{fill:#86341d;}</style></defs><polygon class="cls-1" points="53.77 2.19 36.23 6.91 33.71 7.59 32.97 4.85 25.15 6.96 25.89 9.69 5.83 15.09 6.79 18.67 2.89 19.72 4.19 24.55 8.09 23.5 9.05 27.08 29.12 21.68 29.85 24.42 37.67 22.31 36.93 19.58 39.46 18.9 57 14.18 56.03 10.6 59.93 9.55 58.63 4.72 54.73 5.77 53.77 2.19"/><rect class="cls-2" x="944.78" y="573.7" width="57.73" height="5" transform="translate(-1061.39 -291) rotate(-15.06)"/><rect class="cls-3" x="948.82" y="570" width="49.65" height="12.42" transform="translate(-1061.39 -291) rotate(-15.06)"/><rect class="cls-4" x="969.59" y="567.16" width="8.09" height="18.08" transform="matrix(0.97, -0.26, 0.26, 0.97, -1061.39, -291)"/><rect class="cls-5" x="970.92" y="580.01" width="8.09" height="2.22" transform="translate(-1062.62 -290.49) rotate(-15.06)"/><rect class="cls-6" x="977.5" y="568.6" width="2.62" height="12.42" transform="translate(-1060.85 -289.7) rotate(-15.06)"/><rect class="cls-7" x="968.11" y="572.22" width="11.06" height="7.97" transform="translate(-1061.39 -291) rotate(-15.06)"/><rect class="cls-8" x="970.71" y="574.09" width="5.87" height="4.22" transform="translate(-1061.39 -291) rotate(-15.06)"/><rect class="cls-9" x="970.34" y="574.14" width="5.87" height="1.39" transform="translate(-1061.05 -291.14) rotate(-15.06)"/></svg>