<svg id="Calque_1" data-name="Calque 1" xmlns="http://www.w3.org/2000/svg" viewBox="0 0 44.07 31.94"><defs><style>.cls-1,.cls-2{fill:#575651;}.cls-2{font-size:7px;font-family:Montserrat-Light, Montserrat;font-weight:300;}</style></defs><path class="cls-1" d="M983.39,562a2.49,2.49,0,0,1,1.81.74,2.46,2.46,0,0,1,.75,1.81v8.94a2.54,2.54,0,0,1-2.56,2.55h-14a2.54,2.54,0,0,1-2.55-2.55v-8.94a2.54,2.54,0,0,1,2.55-2.55h2.24l.51-1.36a1.73,1.73,0,0,1,.69-.84,1.77,1.77,0,0,1,1-.36h5.11a1.74,1.74,0,0,1,1,.36,1.81,1.81,0,0,1,.7.84l.51,1.36Zm-10.18,10.18A4.47,4.47,0,1,0,971.9,569,4.32,4.32,0,0,0,973.21,572.15Zm1.13-5.19a2.87,2.87,0,1,1,0,4.06,2.85,2.85,0,0,1,0-4.06Z" transform="translate(-953.05 -559.41)"/><text class="cls-2" transform="translate(13.86 27.63)">Photo</text></svg>