<svg id="Calque_1" data-name="Calque 1" xmlns="http://www.w3.org/2000/svg" viewBox="0 0 44.07 32.99"><defs><style>.cls-1,.cls-2{fill:#575651;}.cls-2{font-size:7px;font-family:Montserrat-Light, Montserrat;font-weight:300;}</style></defs><path class="cls-1" d="M982.91,562.55a1.52,1.52,0,0,1,.71.51,1.69,1.69,0,0,1,.21,1.54l-3.28,10.8a2.44,2.44,0,0,1-.91,1.28,2.35,2.35,0,0,1-1.46.52h-11a2.9,2.9,0,0,1-1.77-.64,3.35,3.35,0,0,1-1.18-1.57,2.18,2.18,0,0,1,0-1.51s0-.14,0-.32,0-.33,0-.44a.68.68,0,0,0,0-.26.56.56,0,0,1,0-.23.58.58,0,0,1,.09-.25,1.88,1.88,0,0,1,.2-.28,2.33,2.33,0,0,0,.19-.28,7.38,7.38,0,0,0,.54-1.09,5.78,5.78,0,0,0,.36-1.1,1.24,1.24,0,0,0,0-.35,1,1,0,0,1,0-.34,1,1,0,0,1,.2-.33,1.75,1.75,0,0,0,.2-.28,7.07,7.07,0,0,0,.51-1.09,5.2,5.2,0,0,0,.29-1.08,1.51,1.51,0,0,0,0-.38.62.62,0,0,1,0-.33.91.91,0,0,1,.26-.36l.26-.27a4.86,4.86,0,0,0,.51-1,4.41,4.41,0,0,0,.33-1.15,1,1,0,0,0,0-.3.74.74,0,0,1,0-.32.56.56,0,0,1,.11-.22,2.93,2.93,0,0,1,.21-.27,2.38,2.38,0,0,0,.2-.25,2.9,2.9,0,0,0,.2-.36q.11-.22.18-.42a3.8,3.8,0,0,1,.19-.43,2.11,2.11,0,0,1,.23-.38,1.49,1.49,0,0,1,.32-.28.74.74,0,0,1,.43-.14,2.58,2.58,0,0,1,.56.07v0a3.6,3.6,0,0,1,.61-.11h9.07a1.57,1.57,0,0,1,1.36.67,1.71,1.71,0,0,1,.22,1.55l-3.27,10.81a4.85,4.85,0,0,1-.85,1.83,2.21,2.21,0,0,1-1.53.41H965.93a.45.45,0,0,0-.46.69c.19.55.76.83,1.72.83h11a1.35,1.35,0,0,0,.67-.18.89.89,0,0,0,.42-.5l3.57-11.77a1.7,1.7,0,0,0,.06-.67Zm-13,3.58a.35.35,0,0,0,0,.27.26.26,0,0,0,.24.12h7.25a.48.48,0,0,0,.31-.12.47.47,0,0,0,.19-.27l.25-.76a.28.28,0,0,0,0-.27.28.28,0,0,0-.24-.11h-7.25a.53.53,0,0,0-.3.11.56.56,0,0,0-.2.27Zm1-3a.35.35,0,0,0,0,.27.26.26,0,0,0,.24.11h7.25a.47.47,0,0,0,.31-.11.5.5,0,0,0,.19-.27l.25-.76a.28.28,0,0,0,0-.27.28.28,0,0,0-.24-.11h-7.25a.53.53,0,0,0-.3.11.56.56,0,0,0-.2.27Z" transform="translate(-951.47 -558.88)"/><text class="cls-2" transform="translate(5.79 28.68)">Romans SF</text></svg>