<svg id="Calque_1" data-name="Calque 1" xmlns="http://www.w3.org/2000/svg" viewBox="0 0 37.71 39.55"><defs><style>.cls-1{fill:#bdac92;}.cls-2{fill:#7e694b;}.cls-3{fill:#67573e;}.cls-4{fill:#fffce8;}.cls-5{fill:#8ececf;}.cls-6{fill:#1c3350;}.cls-7{fill:#72a7da;}.cls-8{fill:#7f4f1f;}</style></defs><polygon class="cls-1" points="33.59 12.14 34.87 10.87 37.33 8.4 31.89 2.95 29.42 5.42 28.14 6.7 27.31 5.87 27.31 5.87 24.46 8.73 24.46 8.73 23.24 9.95 1.6 31.58 3.23 33.21 0.76 35.67 4.61 39.52 7.07 37.05 8.7 38.68 30.33 17.05 31.55 15.82 31.59 15.85 34.44 13 34.41 12.97 33.59 12.14"/><rect class="cls-2" x="982.07" y="549.95" width="7.7" height="6.98" transform="translate(-273.3 -1083.3) rotate(45)"/><rect class="cls-3" x="980.84" y="552.93" width="7.7" height="3.49" transform="translate(-272.79 -1082.06) rotate(45)"/><rect class="cls-4" x="966.77" y="549.39" width="10.03" height="36.36" transform="translate(-267.44 -1069.16) rotate(45)"/><rect class="cls-5" x="967.64" y="552.84" width="5.44" height="32.33" transform="translate(-266.85 -1067.74) rotate(45)"/><rect class="cls-6" x="961.21" y="568.36" width="5.44" height="14.14" transform="translate(-264.19 -1061.31) rotate(45)"/><rect class="cls-7" x="965.65" y="570.19" width="5.44" height="1.61" transform="translate(-266.03 -1065.74) rotate(45)"/><rect class="cls-4" x="954.98" y="579.92" width="5.44" height="3.48" transform="translate(-261.61 -1055.08) rotate(45)"/><rect class="cls-5" x="977.59" y="553.87" width="10.03" height="5.77" transform="translate(-271.92 -1079.98) rotate(45)"/><rect class="cls-1" x="954.09" y="584.6" width="2.64" height="2.64" transform="translate(-259.26 -1052.21) rotate(45)"/><rect class="cls-8" x="953.96" y="582.25" width="2.64" height="2.64" transform="translate(-260.97 -1052.8) rotate(45)"/><rect class="cls-4" x="972.48" y="548.26" width="2.15" height="12.73" transform="translate(-276.08 -1074.21) rotate(45)"/><rect class="cls-5" x="973.38" y="549.16" width="2.15" height="12.73" transform="translate(-275.18 -1074.58) rotate(45)"/></svg>